<svg version="1.0" xmlns="http://www.w3.org/2000/svg" width="2389.333" height="2389.333" viewBox="0 0 1792 1792"><path d="M925.9 28.1C921 29.4 889.5 43.2 885 46c-.8.5-3.5 1.9-6 3.1-13.9 7-42.5 25-53.5 33.7-.5.4-2.6 1.8-4.5 3.2-1.9 1.3-3.7 2.7-4 3-.3.3-3.4 2.8-7 5.5-3.6 2.8-6.7 5.2-7 5.5-.3.3-3 2.5-6 5-17 13.8-33.2 31.1-46.9 50-2.2 3-4.5 6-5.1 6.7-.5.7-1 1.7-1 2.3 0 .5-.4 1-1 1-.5 0-1 .6-1 1.3 0 .7-.8 2.2-1.8 3.3-1 1-2.1 2.6-2.5 3.4-.3.8-2 3.7-3.6 6.5-1.6 2.7-4.2 7.5-5.8 10.5-1.5 3-3.2 5.8-3.8 6.2-.5.4-.7.8-.2.8.4 0-.3 1.9-1.5 4.2-1.2 2.4-2.3 4.7-2.4 5.3-.1.5-1.1 3-2.2 5.5-2.2 5-3.4 8-3.8 9.5-.2.5-1.4 4.1-2.8 8-1.3 3.8-2.9 9-3.6 11.5-.6 2.5-1.4 5.2-1.7 6-.3.8-.7 2.4-.9 3.5-.1 1.1-1.2 6.5-2.4 12s-2.3 11.8-2.6 14c-.2 2.2-.7 5.6-.9 7.5-.6 4.7-1.4 17-1.7 24.7-.1 3.5-.5 6.3-.8 6.3-.3 0-1.8 1.2-3.5 2.6-1.6 1.4-5.2 4.4-8 6.7-13.8 11.6-35.5 34.9-46.9 50.2-3.6 4.9-7.1 9.6-7.6 10.2-.6.7-1 1.6-.9 1.9 0 .4-.4 1-.9 1.3-.5.3-2.4 3.1-4.2 6.1-1.8 3-4 6.3-4.8 7.2-.8 1-1.2 1.8-.8 1.8.3 0-.6 1.9-2 4.2-3.1 4.9-9.3 18-11.9 25.3-1 2.7-2.2 5.4-2.5 6-.6.8-1.5 3.6-2.6 8-.1.5-.9 3-1.7 5.5-1.6 4.5-3.7 12.8-4.2 16.5-.2 1.1-.4 2-.5 2-.1 0-.4 1.1-.6 2.5-1 5.1-1.3 6.5-1.4 6.5-.1 0-.2.8-1.5 12.5-1.1 10.3-1.4 15.8-1.5 27v10.6l-11.8 12c-6.5 6.6-14.5 15.4-17.7 19.4-3.3 4.1-6.4 8-7 8.6-.5.6-1.7 2.2-2.5 3.4-.8 1.2-2.5 3.4-3.7 4.8-1.3 1.5-2.3 3.2-2.3 3.9 0 .6-.4 1.3-.9 1.5-1.2.4-12.7 19.2-17.6 28.8-2.2 4.1-4.4 7.8-4.9 8.2-.6.4-.7.8-.2.8.5 0 .3.7-.4 1.5s-.9 1.5-.4 1.5.5.4-.1.8c-1.4 1-4.8 7.9-4.8 9.7 0 .8-.5 1.5-1 1.5-.6 0-.8.3-.5.6.4.3-.4 2.9-1.6 5.7-5.9 13.4-15 45.3-16.2 56.2-.1 1.1-.4 3.3-.7 5-.8 3.9-1.7 10.4-2.4 16.9-.8 6.9-1.2 56.8-.4 58.1.3.5.7 2.3.8 4 .1 1.6.5 5 .8 7.5 1.2 8.3 1.4 9.4 3 17.6.5 2.9.1 3.4-6.4 8.3-7.3 5.4-13.6 11.9-18 18.6-1.4 2.2-2.9 4.2-3.2 4.5-.9.7-5.8 11.7-7.4 16.5-5.3 16.3-5.2 33.3.1 49.5 2.4 7.2 8.2 18.8 10.7 21.5.7.8 3 3.5 5.2 6.2 13.4 16.4 37 27.6 60.1 28.5l4.1.1.1 71.6c0 39.4.3 73.2.6 75.1.9 6 1.3 7.4 3.9 13.8 6.5 15.8 23.3 29.2 40.2 31.8 2.2.3 14.6.7 27.5.9 12.9.1 23.8.3 24.2.4.4 0 .6.9.6 1.8-.1 1 .2 4.3.6 7.3 1 7.5 1.3 9.5 2 17.2.4 3.7.8 7.5 1 8.5.2 1 .7 4.9 1 8.8.4 3.8.9 8.1 1.1 9.5.2 1.4.6 4.5.9 7 .3 2.5.9 6.7 1.2 9.5.4 2.7.7 6.9.8 9.2.1 2.4.3 4.3.6 4.3s.6 1.7.7 3.8c.1 2 .3 5.3.6 7.2.3 1.9.8 6.2 1.2 9.5.3 3.3.8 7.3 1 9 .7 5.5 3 24.1 4.1 34 .3 2.7.7 6.6 1 8.5.2 1.9.6 5.7.9 8.5.3 2.7.8 6.6 1 8.5.3 1.9.7 5.5 1 8 .2 2.5.7 6.5 1 9 .4 2.5.8 6.2 1 8.2.2 2.1.6 6.1 1 9 1.2 9.9 1.5 12.3 2 17.3.3 2.7.8 6.1 1 7.5.2 1.4.7 5.4 1.1 9 .3 3.6.8 7.6 1 9 .1 1.4.5 4.7.8 7.5.3 2.7.9 7.2 1.2 10 .4 2.7.8 6.3 1 8 .2 2.7.7 6.8 1.9 16.5.2 1.9.9 7.8 1.5 13s1.3 10.9 1.5 12.6c.4 2.8.7 5.5 2.2 18.9.2 2.2.6 5.6.8 7.5.3 1.9.6 5.1.9 7 1.2 11.4 1.8 16.8 2.1 19 .3 1.4.7 4.7 1 7.5.3 2.7.7 6.6 1 8.5.3 1.9.7 6 1 9 .3 3 .8 6.4 1 7.6.6 2.8 1.8 15.1 1.9 19.6.1 2.1.3 3.8.6 3.8s.6.8.6 1.7c.1 2.9 1.4 15.2 3 27 .7 5.3 1.2 10.4 1.9 16.8.3 3.3.8 6.9 1 8 .3 1.1.7 4.9 1.1 8.5.8 9.7 1.1 12 1.8 17.2 1 8.2 1.7 13.2 2.1 16.8.2 1.9.6 5.5.9 8 .3 2.5.8 6.5 1 9 .3 2.5.8 6.5 1.1 9 .4 2.5.8 6.1 1 8 .1 1.9.5 5.6.9 8.2 1 7.8 1.7 14 2.2 18.3 1.1 11.1 2.1 15.3 5.7 22.5 3.8 7.9 4.7 9.1 11.6 15.7 5.4 5.3 19.5 13.3 21.9 12.6.6-.3 1.2-.1 1.2.4 0 .4 1.9 1 4.3 1.2 6.6.6 301.8.5 305.7-.2 4.6-.7 6.8-1.5 15-5.1 1.4-.6 5.1-3 8.2-5.3 11.8-9 19.6-22.4 21.2-36.8.3-2.8.9-7.3 1.2-10 .4-2.8.7-6.7.8-8.7.1-2.1.3-3.8.6-3.8s.5-1.5.4-3.3c0-1.7.2-3.6.4-4.1.3-.5.6-2.3.7-4 .4-4.9 1.5-15.9 2-18.6.3-1.4.7-5 1-8 .3-3 .7-7.1 1-9 .2-1.9.7-6 1-9 .9-7.9 1.3-11.5 1.5-11.5.1 0 .3-1.8.5-4s.6-5.8.9-8c.3-2.2.8-6.9 1.1-10.5.8-7.7 1.1-9.9 1.9-16.5 1.2-9.4 1.5-12 2.1-17.5.4-3 .8-6.6 1.1-8 .4-2.8 1.5-12.6 1.9-18 .1-1.9.6-5.5.9-8 .8-5.1 1.4-10.4 2.1-17 .2-2.5.7-6.8 1-9.5.3-2.8.8-6.7 1.1-8.8.2-2 .6-5.4.9-7.5.3-2 .7-6 1-8.7.3-2.8.7-6.1 1-7.5.2-1.4.7-5.4 1.1-9 .9-8.5 1.1-10.4 1.9-17.5.4-3.3.9-7.1 1-8.5.5-4.4 1.7-14.4 2.1-17.5.2-1.7.6-5.5.9-8.5.3-3 .8-7.1 1.1-9 .3-1.9.7-5.2.9-7.4.3-2.1.7-5.9 1-8.5.3-2.5.8-6.6 1.1-9.1 1-9.6 1.4-12.6 1.9-16.5.3-2.2.7-6.3 1-9 .2-2.8.7-6.6 1-8.5.3-1.9.7-5.8.9-8.5.2-2.8.7-6.6 1-8.5.6-3.7 1.4-10.7 2.2-17.5.4-4 .8-7.8 1.9-16.5.8-6.2 1.4-11.5 2-18 .3-3 .8-6.6 1-8 .3-1.4.7-5.7 1.1-9.5.3-3.9.8-7.9 1-9 .2-1.1.7-4.5 1-7.5.3-3 .7-6.4.8-7.6.2-1.1.7-5.2 1.1-9 .4-3.8.9-8 1.1-9.4.5-3.3 1.5-12.2 2.9-25.5.4-3.8.8-7.6 1-8.5.2-.8.6-4.4 1-8 .4-3.6.8-7.2 1-8 .1-.8.6-4.4 1-8 .3-3.6.9-8.3 1.1-10.5.3-2.2.7-5.8 1-8 .2-2.2.6-5.4.8-7 .3-1.7.5-3.7.5-4.5.1-1.3 3.5-1.5 24.4-1.6 13.3 0 25.3-.3 26.7-.6 12.9-2.9 21.4-7.2 29.5-15.3 5.9-5.8 11.2-13.6 12-17.5.2-1 .8-2.8 1.4-3.9.6-1.1 1.2-3.3 1.4-4.8.2-1.6.6-3.3.9-3.8.2-.6.4-34 .4-74.2l-.1-73.3 4-.1c5.5-.1 13.1-1.1 18-2.3 4.9-1.2 18.4-6.4 19.5-7.6.3-.3 1.6-1.1 3-1.9 5.6-3 14.8-10.8 20-16.8 5.7-6.6 14.3-21.1 13.4-22.5-.3-.4-.1-.8.4-.8s2-4.4 3.3-9.7c2.9-12.2 3.1-23.7.6-38.3-.1-.8-.5-2-.8-2.5-.4-.6-.9-2.4-1.3-4-1-4.2-8.3-19-10.1-20.5-.8-.7-1.5-1.6-1.5-2.1 0-.4-2-2.9-4.4-5.4-3.9-4-4.3-4.9-3.6-7.3.5-1.5 2.7-8.3 5-15.1 2.2-6.9 4.2-13.4 4.5-14.5.2-1.2.4-2.2.6-2.4.1-.1.3-.7.4-1.2.1-.6.3-1.1.5-1.3.1-.1.3-1.1.5-2.2s1.3-5.7 2.4-10.3c1.2-4.5 2.3-9.7 2.5-11.5.3-1.7.8-4.3 1-5.7.3-1.4.8-3.6 1.1-5 .3-1.4.8-5 1.2-8 .6-5.4 1-8.5 1.3-8.5 0 0 .4-3.8.7-8.5 1.4-17.8.7-54.3-1.1-63.5-.2-1.1-.7-4.2-1-6.8-.4-2.7-.9-5.7-1.1-6.7-.2-.9-.6-3.3-.9-5.1-.3-1.9-1.9-8.8-3.7-15.4-1.7-6.6-3.1-12.6-3.2-13.3 0-.6-.5-1.2-1-1.2-.6 0-.7-.3-.4-.7.4-.3.2-1.2-.4-2-.6-.7-.9-1.3-.5-1.3.5 0-.8-4-3.5-10.8-.5-1.2-1.3-3.2-1.8-4.5-2.7-7-5.8-13.9-9.9-22.2-6.7-13.5-7.5-15.1-12.3-22.8-2.7-4.3-4.9-8.1-4.9-8.4 0-.3-1.3-2.2-3-4.3-1.6-2.1-3-4.1-3-4.5 0-1.6-21.7-29.7-32.9-42.5-11.8-13.5-41.7-42.6-56.9-55.5-2-1.7-4.3-3.7-5.2-4.5-.8-.8-7.4-6.2-14.5-11.9-7.2-5.7-13.2-10.7-13.5-11-.3-.3-1.3-1.1-2.2-1.6-.9-.6-7.1-5.2-13.7-10.3-6.7-5-12.4-9.2-12.8-9.2-.3 0-1.3-.7-2.2-1.6-.9-.9-9.5-7.2-19.1-14-9.6-6.8-18-12.8-18.7-13.4-.7-.5-1.6-1-2.2-1-.5 0-1.1-.3-1.3-.8-.1-.4-3.2-2.9-6.8-5.5-3.6-2.7-7.2-5.3-8-6-.8-.7-3.2-2.3-5.3-3.7-2-1.4-3.7-2.8-3.7-3.3 0-.4-.5-.7-1-.7-.6 0-4.9-2.9-9.5-6.5-4.7-3.6-9-6.5-9.4-6.5-.5 0-1.1-.4-1.3-.8-.1-.4-5.2-4.5-11.3-9-16-12.1-25-20.1-36-32.3-8.5-9.4-10.5-11.8-10.5-12.9 0-.5-.4-1-.9-1-1.3 0-17.3-24.2-22.1-33.5-2.3-4.4-4.6-8.5-5.2-9.2-.6-.7-.8-1.3-.4-1.3s-.3-1.8-1.4-4c-1.6-3.2-6-13.9-6.5-16-.1-.3-.4-1.2-.8-2-1.6-4.4-3.7-10.8-4.2-13-.3-1.4-1.4-5.9-2.5-10s-2.2-8.9-2.5-10.5c-.2-1.7-.7-4.1-1-5.5-2.6-13-3.6-42.9-2.1-58 .5-4.1 1-9.1 1.2-11 .2-1.9 1.3-8.2 2.4-14 2.6-13.1 2.7-13.7 3.7-16.3.4-1.2.8-3.1.8-4.2s.4-2.5.8-3.2c.4-.6.3-1.4-.2-1.7-.5-.3-.7-1.5-.4-2.6.8-3.2-4.4-12.6-9-16.4-6.4-5.2-15.8-7.4-22.8-5.5zm-28.5 72.1c-.7 3.5-.7 35.2 0 44.8.9 12.2 2.8 26.5 4.6 35 .5 2.5 1.2 5.6 1.4 7 .3 1.4 1.2 5.2 2.1 8.5.9 3.3 1.8 6.4 1.9 7 1.4 5.4 2 7.2 2.9 8.2.5.7.7 1.3.4 1.3-.8 0 3.3 11.6 8.1 23 19.5 46.2 49.4 84.1 93.6 118.3 5.6 4.3 11.1 8.7 12.4 9.8 1.2 1 2.4 1.9 2.7 1.9.3 0 10 6.9 15 10.7.6.5 3.9 2.8 7.5 5.2 3.6 2.4 9.3 6.3 12.7 8.7 3.5 2.4 6.7 4.4 7.3 4.4.5 0 1 .4 1 .9 0 .6 1.1 1.6 2.5 2.3 2.7 1.4 33.9 23.6 36 25.5.8.7 1.6 1.3 1.9 1.3.3 0 1.6.9 2.8 1.9 1.3 1.1 8.2 6.3 15.3 11.5 7.2 5.3 13.7 10.2 14.5 10.9.8.7 2.9 2.3 4.6 3.7 1.7 1.4 4.8 3.8 6.9 5.5 2.1 1.6 4.3 3.5 4.9 4 .6.6 3.6 3 6.6 5.5 3 2.5 5.7 4.7 6 5 .3.3 2.3 2 4.5 3.9 3.8 3.2 23.6 21.4 25.9 23.7 14.2 14.6 26.1 27.6 30.4 33.4 1 1.2 2.7 3.3 4 4.6 1.3 1.3 2 2.4 1.8 2.4-.5 0 .1.9 4.6 6.2 1 1.2 3.9 5.3 6.5 9.2 2.7 3.9 5.1 7.3 5.4 7.6 2.7 2.3 19.6 33.8 24 44.7.5 1.3 1.3 3.3 1.8 4.5 1.5 3.6 5.3 14.1 5.6 15.8.2.8.8 3 1.4 4.8 1 3.4 1.2 4.1 1.6 5.7.1.5.7 2.6 1.4 4.7.6 2 1.1 4 1 4.5-.2.4.2 2.6.8 4.8.7 2.2 1.4 6 1.8 8.5.4 2.5.8 5.6 1 7 2.7 18.3 2.7 55 .1 71-.2 1.4-.7 4.3-1.1 6.5-.3 2.2-.8 4.7-1 5.5-.2.8-.7 2.8-1 4.5-.5 3.1-1.9 9.6-2.4 11.2-.1.2-.1.5-.1.8-.1.3-.7 2.3-1.5 4.6-.9 2.3-1.7 5.1-1.9 6.3-.6 3.3-5.7 17-6.8 18.3-.6.7-.7 1.3-.3 1.3.4 0 .3.6-.3 1.3-.8.9-15.5 1.2-68.4 1.2-37-.1-67.9-.4-68.6-.9-.7-.4-1.2-.2-1.2.4 0 .6-.5.8-1.2.4-.6-.4-7-.9-14.2-1-7.2-.2-13.1-.4-13.1-.4 0-.1-3.4-.3-7.5-.5s-10.9-.6-15-.9c-4.1-.3-10.4-.8-14-1.1-3.6-.2-8.5-.7-11-1-2.5-.2-7.2-.7-10.5-1-3.3-.3-8-.7-10.5-1-7.3-.9-13.2-1.6-18-2-2.5-.3-5.6-.7-7-1-3.1-.8-7.2-1.3-12.7-1.6-2.4-.2-4.3-.6-4.3-1 0-.3-.8-.6-1.7-.6-2.4.1-11.2-1.2-19.8-2.8-12.1-2.4-12.9-2.6-17.4-3.1-2.4-.2-4.8-.7-5.4-1.1-.5-.3-2-.7-3.1-.9-1.2-.1-3.4-.5-5.1-.9-1.6-.3-4.1-.8-5.5-1.1-1.4-.3-4.3-1-6.5-1.6-2.2-.5-4.9-1.2-6-1.4-8.4-1.6-9.5-1.9-11.5-2.6-.8-.3-7.1-2-14-3.8-11.9-3-17.7-4.6-21-5.8-.8-.3-1.8-.6-2.2-.7-.5-.2-.9-.3-1-.5-.2-.1-1-.3-1.9-.5-2-.4-28.6-9.2-31.4-10.4-1.1-.5-3.6-1.4-5.5-2.1-1.9-.7-5.1-1.9-7-2.8-1.9-.8-3.7-1.5-4-1.5-.3.1-1.4-.4-2.5-1s-2.2-1.2-2.5-1.2c-4.7-1.2-40.6-18.6-52.6-25.6-4.9-2.9-9.8-5.7-10.9-6.3-2.6-1.5-7.9-4.9-8.5-5.6-.3-.3-1.7-1.1-3.2-1.9-1.6-.8-2.8-1.8-2.8-2.3 0-.4-.5-.8-1.1-.8-.9 0-16.6-11.4-17.9-13-.3-.3-1.6-1.4-3-2.3-3.4-2.3-15.2-13-21.4-19.4-10.9-11-16.3-17.4-27.4-32.3-5.4-7.2-21.2-36-21.2-38.6 0-.3-.7-2-1.5-3.7-1.7-3.8-7.6-21.4-8.1-24.2-.1-1.1-.5-3.5-.8-5.3-.3-1.8-.7-3.6-1-4.1-.3-.4-.8-3.5-1.1-6.7-.4-3.2-1-7.5-1.4-9.5-.9-3.9-.7-37.7.2-41.9.3-1.4.8-4.5 1.1-7 .4-2.5 1-6.2 1.5-8.3.5-2 .7-3.7.4-3.7-.2 0-.1-.6.4-1.3.4-.6.9-2.3 1.1-3.6.5-3.5 8.9-28.3 9.9-29 .4-.3.9-1.4 1.1-2.4.7-4 15.8-30.7 17.5-30.7.4 0 .7-.5.7-1.1 0-3 26-31.9 28.7-31.9.8 0 1.2.4.8 1-.3.5-.1 1.7.4 2.7.5 1 1.9 4.7 3.1 8.3 1.2 3.6 2.6 7.4 3.1 8.5.6 1.2 1.1 2.9 1.3 3.8.1.9.8 2.3 1.4 2.9.7.7 1.2 1.8 1.2 2.4 0 3.9 18 34.2 26.7 44.9 1.3 1.6 4.1 5 6.1 7.5 3.4 4.2 28.3 29.2 31.4 31.5 2.5 1.9 11.3 9 11.8 9.5.8.8 8.3 6.4 10.1 7.5.8.5 6.9 4.6 13.5 9 6.5 4.4 12.1 8 12.4 8 .3 0 2.3 1.2 4.5 2.6 2.2 1.4 4.7 2.9 5.5 3.2.8.4 3 1.6 4.8 2.7 1.9 1.1 7.9 4.4 13.5 7.3 5.6 2.8 10.5 5.6 10.9 6.2.4.5.8.6.8.2 0-.4 3 .8 6.8 2.7 3.7 1.9 9.9 4.9 13.7 6.6 3.9 1.8 8.8 4.1 11.1 5.1 2.2 1 4.3 1.9 4.7 1.9.3 0 3 1.1 5.9 2.4 2.9 1.3 8.9 3.9 13.3 5.6 4.4 1.8 9.1 3.7 10.5 4.3 1.4.5 3 1.1 3.5 1.3.6.1 4.4 1.7 8.5 3.4s8 3.3 8.5 3.4c1 .3 2.3.8 6.3 2.3.9.3 2 .7 2.5.8.4.2.9.4 1.2.5.3.1.8.3 1.3.5.4.1 2.1.7 3.7 1.4 1.7.7 7.7 3 13.5 5.1 5.8 2.1 12.6 4.8 15.3 6 2.6 1.1 5.2 1.8 5.7 1.5.6-.3 1-.2 1 .2 0 1 7.4.9 11.5-.2 8-2.1 16-10.3 18.3-18.7.9-3.5.5-13.9-.6-14.8-.4-.3-.8-1.2-1-2-.9-4.1-9.2-12-14.2-13.5-2.4-.7-28-10-31-11.2-.8-.3-1.7-.7-2-.8-2.7-.9-4.8-1.8-6.4-2.7-1-.5-2.6-1.1-3.5-1.3-.9-.2-2.9-.9-4.6-1.6-1.6-.7-3.2-1.3-3.5-1.3-2.7-.6-47.9-19.4-59.5-24.7-2.7-1.3-5.2-2.4-5.5-2.4-.3-.1-7.5-3.6-16-7.9-8.5-4.4-16.5-8.4-17.7-9-1.3-.6-2.3-1.5-2.3-1.9 0-.5-.4-.6-.9-.3s-1.4-.1-2.1-.9c-.7-.8-1.8-1.5-2.5-1.5-.8 0-1.5-.3-1.7-.8-.1-.4-1.9-1.6-3.8-2.6-9.3-5.1-31.9-20.8-32.8-22.9-.2-.4-1-.7-1.7-.7-.8 0-1.8-.6-2.2-1.3-.4-.6-3.3-3.3-6.3-5.9-9.8-8.3-19.8-18.6-27-27.8-1.9-2.5-3.8-4.7-4.2-4.8-.4-.2-.8-.9-.8-1.6 0-.7-.8-2.1-1.7-3.2-3.1-3.4-6-7.9-6.7-10.2-.4-1.2-1.2-2.2-1.7-2.2s-.8-.3-.7-.8c.1-.4-1.1-3.2-2.7-6.2s-2.8-5.8-2.7-6.3c.1-.4-.2-.7-.8-.7-.5 0-1-.5-1-1.2 0-.6-1.2-4.1-2.6-7.7-2.7-6.8-6.2-17.7-7-22.1-.2-1.4-.7-3.6-1-5-.6-2.5-.7-3.1-1.9-10-1.3-8.2-2-18.4-1.9-31.5.1-17.9 1-26.6 4.6-43.4 1.1-5.1 2.1-10.1 2.3-11 .7-3.6 5.8-18.8 7.2-21.4.8-1.6 1.6-3.7 1.8-4.6.5-2.5 10.6-23.1 13.3-27.1 1.3-1.9 2.8-4.4 3.3-5.5 1.4-2.9 10.5-16.4 11.9-17.5.3-.3 1.4-1.6 2.2-2.9 6.3-9.1 26.3-28.8 39.4-38.8 6.5-4.9 7.2-5.5 9.3-7.3.9-.8 3.3-2.6 5.4-4 2-1.4 3.7-2.8 3.7-3.3 0-.4.5-.7 1-.7.6 0 2-.9 3.2-2 1.2-1.1 2.7-2 3.4-2 .6 0 1.4-.7 1.8-1.5.3-.8 1.2-1.5 2-1.5s1.6-.4 1.8-.8c.2-.4 4.6-3.4 9.8-6.7 5.2-3.2 10.3-6.5 11.3-7.3.9-.9 1.7-1.2 1.7-.8 0 .4 1.2-.2 2.6-1.3 3.4-2.7 4.4-2.6 3.8.1zm-296.1 498c-.2.5.1.8.8.8.7 0 1 .3.6.6-.7.7 6.3 17.6 7.7 18.6.6.4.8.8.4.8s1.4 3.9 3.9 8.7c2.5 4.9 5.1 9.8 5.7 11 .6 1.3 1.4 2.3 1.9 2.3.4 0 .7.5.7 1.1 0 1.7 17.2 26.8 21.5 31.5.6.6 2.1 2.5 3.5 4.4 3.5 4.6 31.4 32.6 38 38.1 11.9 9.9 17.6 14.4 27.6 21.5 5.7 4.1 10.8 7.4 11.3 7.4s1.1.4 1.3.8c1.1 2.7 55.8 33.5 55.8 31.4 0-.4.4-.2.8.3.4.6 3.6 2.4 7.2 3.9 3.6 1.6 9.3 4.2 12.7 5.8 3.4 1.5 6.7 2.8 7.3 2.8.7 0 2.4.7 3.8 1.5 3.5 1.9 22.9 9.5 26.2 10.1 1.3.3 3.8 1.1 5.5 1.9 3.2 1.4 9.3 3.4 11 3.6.6.1 1.8.5 2.7 1 .9.5 4 1.5 7 2.3 2.9.8 8.5 2.4 12.3 3.6 8.1 2.4 6.1 1.9 24 6.5 7.7 2 15.1 3.9 16.5 4.1 1.4.3 4.3 1 6.5 1.6 2.2.6 5.1 1.2 6.5 1.3 1.4.1 2.5.3 2.5.4 0 .4 3.7 1.1 17 3.5 5 .9 11 2.1 13.5 2.6 4.1.9 7.4 1.4 15.5 2.6 1.7.2 4.6.7 6.5 1 1.9.3 4.9.7 6.5.9 1.7.2 3 .4 3 .5 0 .1 1.6.3 3.5.5 5 .5 13.1 1.5 16 2 2.2.4 7.4 1 17 2 1.4.1 5.4.6 9 1 3.6.4 9 .9 12 1.1 3 .2 8.7.6 12.5.9 3.9.4 9.7.7 13.1.9 3.3.1 6.4.4 7 .7.5.3 4.6.4 9.1.4 4.6 0 8.3.2 8.3.5 0 .7 22.8 1 102.5 1.4 68.8.3 70.1.3 74.7 2.4 5.9 2.6 12.7 9.3 15.5 15.2 1.7 3.6 2.1 6.1 1.9 12.5-.3 9.1-2.2 13.9-8 19.7-3.4 3.4-11.6 8.5-11.6 7.2 0-.4-.6-.1-1.3.5-1 .7-16.4 1.1-51.3 1.1l-50 .1-5.1 2.3c-12.7 6-19.1 20.9-14 32.9.9 2 1.5 3.9 1.4 4-.6 1 8.6 8.3 12.9 10.3 4.6 2 6.6 2.2 23.4 2.4 10.1 0 18.6.3 18.9.5.7.7.4 139.5-.3 140.2-.4.4-139.9.7-310.1.7-274.3.1-309.6-.1-309.9-1.4-.3-.8-.4-32.7-.4-70.8l.1-69.2h238.9c244.6 0 246 0 249.6-3.7.7-.7 1.7-1.3 2.2-1.3 1.9 0 7.6-7.3 9.2-11.8 3.9-10.6 1.8-19.3-6.5-27.5-3.2-3.2-6.1-5.6-6.5-5.3-.3.3-1.2 0-2-.7-1.2-.9-57.8-1.2-269.6-1.4-147.5-.1-270.8-.4-274.1-.6-9.2-.7-17.6-5.9-22.4-14-2.4-3.9-5.3-14.5-4.4-16 .2-.4.6-2.2.8-4 .9-8.4 7.3-16.7 16.5-21.4l5.5-2.7 34-.1c31.8-.1 34.3-.3 38.5-2.2 10.3-4.6 16-13.8 15.6-25.2-.4-10-5.7-17.5-15.5-22.2-4.1-1.9-6.3-2.1-30.2-2.1-28.9-.1-26.3.6-27.4-7.8-2.2-16-2.8-25.4-2.8-39.5.1-18.4 1.6-34.7 4.5-47.5.5-2.5 1.1-5.6 1.4-7 .2-1.4 1.1-5 1.9-8 .9-3 1.7-6.2 1.8-7 .5-3.3 5.6-18 7.9-22.3.5-1 .6-2.2.3-2.7-.3-.4 0-1 .5-1.2.6-.2 1.2-1 1.3-1.8.2-.9 3.3-7.7 7-15.2 6.7-13.3 19.8-34.3 26.7-42.5l3.5-4.1 1.1 2.6c.6 1.5.9 3 .7 3.4zm259.2 556.7c1.4.1-5.1 7.1-23 24.7-13.7 13.5-30.7 30.1-37.6 37-6.9 6.8-12.9 12.4-13.3 12.4-1.4 0-6.5-4.7-5.9-5.4.4-.3.2-.6-.4-.6-.6 0-11.8-10.7-25.1-23.8-13.2-13-28.6-28.1-34.1-33.6-5.5-5.4-9.9-10.1-9.7-10.5.3-.4 139.2-.6 149.1-.2zm236.5.2c0 1.2-74.2 73.9-75.4 73.9-.4 0-5.2-4.3-10.5-9.5-30.5-30.1-57.1-56.2-60.8-59.6-2.4-2.2-4.3-4.1-4.3-4.4 0-.2 1.5-.5 3.3-.7 6.1-.6 147.7-.3 147.7.3zm-131.4 92.6c10.1 10 18.4 18.5 18.4 18.9 0 .4-8.2 8.8-18.2 18.6-10.1 9.9-28.1 27.6-40 39.3l-21.6 21.4-40.4-39.9-40.3-39.9L843 1247c10.7-10.5 28.9-28.3 40.3-39.6l20.8-20.4 21.6 21.2c11.8 11.7 29.8 29.5 39.9 39.5zm143.9-28.5c-.2 1.8-.6 5.3-.9 7.8-.3 2.5-.8 6.5-1.1 9-.7 5-1 7.3-2 17.5-.4 3.8-.9 7.9-1.1 9-.5 2.1-1.4 10.6-1.9 16.5-.2 1.9-.4 3.6-.5 3.7-.1.2-.3 1.1-.4 2-2 18.1-2.3 20.3-2.8 20.9-.2.1-9.3-8.7-20.2-19.6l-19.8-19.9 25.4-25.1c13.9-13.7 25.4-25 25.5-25 .1 0 0 1.5-.2 3.2zm-292.2 114.2c12.2 12 23.5 22.9 25 24.2 1.6 1.3 2.5 2.4 2 2.4-.4 0-.2.4.4.8.7.5 6.1 5.5 11.9 11.2l10.6 10.4-34.3 33.8c-18.9 18.6-34.4 33.8-34.5 33.8-.2 0-2.6 2.5-5.5 5.5-2.8 3-5.6 5.5-6.2 5.5-2 0-67.7-65.6-67.8-67.7-.1-2.3-.7-9.1-1.5-16.3l-.5-5.5L747 1342c16.6-16.2 32.3-31.6 34.9-34.2l4.6-4.7 4.3 4.2c2.4 2.3 14.3 14 26.5 26.1zm223.6-12.7c9.9 9.8 25.5 25.2 34.6 34.2l16.7 16.4-.6 6.1c-.4 3.3-.9 6.8-1.1 7.6-.2.8-.6 3.5-.9 6-.5 4.4-1.3 5.2-31.4 35-17 16.8-32.1 31.6-33.5 32.8l-2.5 2.4-25.4-25c-13.9-13.8-32-31.6-40.2-39.7l-14.8-14.6 18.3-18c10.1-9.9 28.2-27.7 40.2-39.5 12-11.8 22-21.4 22.2-21.4.2 0 8.5 8 18.4 17.7zm-75.1 159.1c10 9.8 18.2 18.2 18.2 18.6 0 .4-12.6 13.2-28.1 28.4-15.5 15.2-33.2 32.8-39.5 38.9-6.3 6.2-11.8 11.3-12.2 11.3-1 0-80.2-77.7-80.2-78.6 0-.4 17.6-17.8 63.2-62.7l17-16.7 21.7 21.4c11.9 11.8 29.8 29.5 39.9 39.4zm-218 17.4c1.1 1.4.2 2.6-6.5 9.2-4.2 4.1-7.8 7.4-8 7.2-.3-.3-.4-1.6-2.3-19.6-1.4-13.3-1.3-12.1-1.1-13.9.1-1.1 13.6 11.8 17.9 17.1zm330.7-13c-.3 2.9-.8 7.1-1.1 9.3-.9 7.1-1.4 11.9-1.8 15.8-.2 2.1-.5 4-.8 4.2-.2.2-3.9-3-8.1-7.3l-7.7-7.8 9.7-9.7c5.4-5.3 9.9-9.7 10.1-9.7.2 0 .1 2.4-.3 5.2zm-245.2 97c23.7 23.6 42.7 43.1 42.4 43.5-.4.3-.2 1.2.4 2 .9 1 .3 1.3-3.2 1.4-10.3.1-81.5 0-82.4-.1-.6-.1-1.4-.2-2 0-3.4.6-40.8.1-41.5-.6-.5-.5-1.1-3.6-1.4-6.9-.3-3.3-.8-7.4-1-9-.2-1.7-.7-5.7-1-9-.4-3.3-1.2-9.7-1.7-14.3l-1.1-8.2 22.8-22.5c22-21.6 22.9-22.4 24.7-20.7 1.1.9 21.3 20.9 45 44.4zm208.4-27c10.8 10.6 20.9 20.6 22.5 22.3 2.8 2.9 2.9 3.2 2.3 10.5-.3 4.1-.7 8.6-.9 10-1.1 6.6-2.5 18.4-2.9 25.2-.1 2-.6 4-1 4.4-.8.8-132.7 1.2-132.7.3 0-.3 17.8-18 39.6-39.5 21.8-21.4 42.6-41.9 46.2-45.6 3.7-3.8 6.9-6.8 7-6.8.2 0 9.2 8.7 19.9 19.2zm13.6 127.3c-.1 1.8-1 9.6-1.8 16.5-.2 1.4-.6 5.6-1 9.3-.3 3.7-.8 7.7-1 8.7-.2 1-.7 4.7-1 8.2-1.2 11.4-1.8 13.3-4.5 13.5-4.7.5-33.3.2-34.1-.2-.4-.3-1-.1-1.4.5-.4.7-1.2.7-2.4 0-1-.5-2.1-.6-2.5-.3-1 1-3.5 1.2-4 .4-.3-.3-3.4-.4-7-.1-3.6.3-7.4.3-8.3-.1-1-.3-2.6-.4-3.5 0-.9.3-5.8.4-10.8.1-5.1-.3-9.4-.2-9.7.3-.2.4-1.2.3-2.2-.3-1-.5-2.1-.6-2.5-.3-1 1-3.5 1.2-4 .4-.3-.3-3.4-.4-7-.1-3.6.3-7.4.3-8.3-.1-1-.3-2.6-.4-3.5 0-.9.3-5.8.4-10.8.1-5.1-.3-9.3-.3-9.5 0-.2.3-5.6.3-12 0s-11.8-.3-12 0c-.2.3-3.8.3-8 0s-7.8-.3-8 0c-.2.3-3.8.3-8 0s-7.8-.3-8 0c-.2.3-3.8.3-8 0s-7.8-.3-8 0c-.2.3-5.6.3-12 0s-11.9-.2-12.2.3c-.2.4-1.2.3-2.2-.3-1-.5-2.1-.6-2.5-.3-1 1-3.5 1.2-4 .4-.3-.3-3.4-.4-7-.1-3.6.3-7.4.3-8.3-.1-1-.3-2.6-.4-3.5 0-.9.3-5.8.4-10.8.1-5.1-.3-9.4-.3-9.6-.1-.7.7-9.8.1-10.6-.7-.3-.4-.9-3-1.2-5.7-.3-2.8-.8-6.8-1-9-.3-2.2-.8-6.7-1.1-10-.4-3.3-.9-7.6-1.1-9.5-1-7.3-1.3-9.7-1.9-15.4-.3-3.2-.8-6.2-1-6.7-.3-.4.1-.9.7-1.2.7-.2 69-.3 151.8-.3 149.9.1 150.5.1 150.3 2.1z"/></svg>