<?xml version="1.0" standalone="no"?>
<!DOCTYPE svg PUBLIC "-//W3C//DTD SVG 20010904//EN"
 "http://www.w3.org/TR/2001/REC-SVG-20010904/DTD/svg10.dtd">
<svg version="1.0" xmlns="http://www.w3.org/2000/svg"
 width="1792.000000pt" height="1792.000000pt" viewBox="0 0 1792.000000 1792.000000"
 preserveAspectRatio="xMidYMid meet">
<metadata>
Created by potrace 1.14, written by Peter Selinger 2001-2017
</metadata>
<g transform="translate(0.000000,1792.000000) scale(0.100000,-0.100000)"
fill="#000000" stroke="none">
<path d="M9259 17639 c-49 -13 -364 -151 -409 -179 -8 -5 -35 -19 -60 -31
-139 -70 -425 -250 -535 -337 -5 -4 -26 -18 -45 -32 -19 -13 -37 -27 -40 -30
-3 -3 -34 -28 -70 -55 -36 -28 -67 -52 -70 -55 -3 -3 -30 -25 -60 -50 -170
-138 -332 -311 -469 -500 -22 -30 -45 -60 -51 -67 -5 -7 -10 -17 -10 -23 0 -5
-4 -10 -10 -10 -5 0 -10 -6 -10 -13 0 -7 -8 -22 -18 -33 -10 -10 -21 -26 -25
-34 -3 -8 -20 -37 -36 -65 -16 -27 -42 -75 -58 -105 -15 -30 -32 -58 -38 -62
-5 -4 -7 -8 -2 -8 4 0 -3 -19 -15 -42 -12 -24 -23 -47 -24 -53 -1 -5 -11 -30
-22 -55 -22 -50 -34 -80 -38 -95 -2 -5 -14 -41 -28 -80 -13 -38 -29 -90 -36
-115 -6 -25 -14 -52 -17 -60 -3 -8 -7 -24 -9 -35 -1 -11 -12 -65 -24 -120 -12
-55 -23 -118 -26 -140 -2 -22 -7 -56 -9 -75 -6 -47 -14 -170 -17 -247 -1 -35
-5 -63 -8 -63 -3 0 -18 -12 -35 -26 -16 -14 -52 -44 -80 -67 -138 -116 -355
-349 -469 -502 -36 -49 -71 -96 -76 -102 -6 -7 -10 -16 -9 -19 0 -4 -4 -10 -9
-13 -5 -3 -24 -31 -42 -61 -18 -30 -40 -63 -48 -72 -8 -10 -12 -18 -8 -18 3 0
-6 -19 -20 -42 -31 -49 -93 -180 -119 -253 -10 -27 -22 -54 -25 -60 -6 -8 -15
-36 -26 -80 -1 -5 -9 -30 -17 -55 -16 -45 -37 -128 -42 -165 -2 -11 -4 -20 -5
-20 -1 0 -4 -11 -6 -25 -10 -51 -13 -65 -14 -65 -1 0 -2 -8 -15 -125 -11 -103
-14 -158 -15 -270 l0 -106 -118 -120 c-65 -66 -145 -154 -177 -194 -33 -41
-64 -80 -70 -86 -5 -6 -17 -22 -25 -34 -8 -12 -25 -34 -37 -48 -13 -15 -23
-32 -23 -39 0 -6 -4 -13 -9 -15 -12 -4 -127 -192 -176 -288 -22 -41 -44 -78
-49 -82 -6 -4 -7 -8 -2 -8 5 0 3 -7 -4 -15 -7 -8 -9 -15 -4 -15 5 0 5 -4 -1
-8 -14 -10 -48 -79 -48 -97 0 -8 -5 -15 -10 -15 -6 0 -8 -3 -5 -6 4 -3 -4 -29
-16 -57 -59 -134 -150 -453 -162 -562 -1 -11 -4 -33 -7 -50 -8 -39 -17 -104
-24 -169 -8 -69 -12 -568 -4 -581 3 -5 7 -23 8 -40 1 -16 5 -50 8 -75 12 -83
14 -94 30 -176 5 -29 1 -34 -64 -83 -73 -54 -136 -119 -180 -186 -14 -22 -29
-42 -32 -45 -9 -7 -58 -117 -74 -165 -53 -163 -52 -333 1 -495 24 -72 82 -188
107 -215 7 -8 30 -35 52 -62 134 -164 370 -276 601 -285 l41 -1 1 -716 c0
-394 3 -732 6 -751 9 -60 13 -74 39 -138 65 -158 233 -292 402 -318 22 -3 146
-7 275 -9 129 -1 238 -3 242 -4 4 0 6 -9 6 -18 -1 -10 2 -43 6 -73 10 -75 13
-95 20 -172 4 -37 8 -75 10 -85 2 -10 7 -49 10 -88 4 -38 9 -81 11 -95 2 -14
6 -45 9 -70 3 -25 9 -67 12 -95 4 -27 7 -69 8 -92 1 -24 3 -43 6 -43 3 0 6
-17 7 -38 1 -20 3 -53 6 -72 3 -19 8 -62 12 -95 3 -33 8 -73 10 -90 7 -55 30
-241 41 -340 3 -27 7 -66 10 -85 2 -19 6 -57 9 -85 3 -27 8 -66 10 -85 3 -19
7 -55 10 -80 2 -25 7 -65 10 -90 4 -25 8 -62 10 -82 2 -21 6 -61 10 -90 12
-99 15 -123 20 -173 3 -27 8 -61 10 -75 2 -14 7 -54 11 -90 3 -36 8 -76 10
-90 1 -14 5 -47 8 -75 3 -27 9 -72 12 -100 4 -27 8 -63 10 -80 2 -27 7 -68 19
-165 2 -19 9 -78 15 -130 6 -52 13 -109 15 -126 4 -28 7 -55 22 -189 2 -22 6
-56 8 -75 3 -19 6 -51 9 -70 12 -114 18 -168 21 -190 3 -14 7 -47 10 -75 3
-27 7 -66 10 -85 3 -19 7 -60 10 -90 3 -30 8 -64 10 -76 6 -28 18 -151 19
-196 1 -21 3 -38 6 -38 3 0 6 -8 6 -17 1 -29 14 -152 30 -270 7 -53 12 -104
19 -168 3 -33 8 -69 10 -80 3 -11 7 -49 11 -85 8 -97 11 -120 18 -172 10 -82
17 -132 21 -168 2 -19 6 -55 9 -80 3 -25 8 -65 10 -90 3 -25 8 -65 11 -90 4
-25 8 -61 10 -80 1 -19 5 -56 9 -82 10 -78 17 -140 22 -183 11 -111 21 -153
57 -225 38 -79 47 -91 116 -157 54 -53 195 -133 219 -126 6 3 12 1 12 -4 0 -4
19 -10 43 -12 66 -6 3018 -5 3057 2 46 7 68 15 150 51 14 6 51 30 82 53 118
90 196 224 212 368 3 28 9 73 12 100 4 28 7 67 8 87 1 21 3 38 6 38 3 0 5 15
4 33 0 17 2 36 4 41 3 5 6 23 7 40 4 49 15 159 20 186 3 14 7 50 10 80 3 30 7
71 10 90 2 19 7 60 10 90 9 79 13 115 15 115 1 0 3 18 5 40 2 22 6 58 9 80 3
22 8 69 11 105 8 77 11 99 19 165 12 94 15 120 21 175 4 30 8 66 11 80 4 28
15 126 19 180 1 19 6 55 9 80 8 51 14 104 21 170 2 25 7 68 10 95 3 28 8 67
11 88 2 20 6 54 9 75 3 20 7 60 10 87 3 28 7 61 10 75 2 14 7 54 11 90 9 85
11 104 19 175 4 33 9 71 10 85 5 44 17 144 21 175 2 17 6 55 9 85 3 30 8 71
11 90 3 19 7 52 9 74 3 21 7 59 10 85 3 25 8 66 11 91 10 96 14 126 19 165 3
22 7 63 10 90 2 28 7 66 10 85 3 19 7 58 9 85 2 28 7 66 10 85 6 37 14 107 22
175 4 40 8 78 19 165 8 62 14 115 20 180 3 30 8 66 10 80 3 14 7 57 11 95 3
39 8 79 10 90 2 11 7 45 10 75 3 30 7 64 8 76 2 11 7 52 11 90 4 38 9 80 11
94 5 33 15 122 29 255 4 38 8 76 10 85 2 8 6 44 10 80 4 36 8 72 10 80 1 8 6
44 10 80 3 36 9 83 11 105 3 22 7 58 10 80 2 22 6 54 8 70 3 17 5 37 5 45 1
13 35 15 244 16 133 0 253 3 267 6 129 29 214 72 295 153 59 58 112 136 120
175 2 10 8 28 14 39 6 11 12 33 14 48 2 16 6 33 9 38 2 6 4 340 4 742 l-1 733
40 1 c55 1 131 11 180 23 49 12 184 64 195 76 3 3 16 11 30 19 56 30 148 108
200 168 57 66 143 211 134 225 -3 4 -1 8 4 8 5 0 20 44 33 97 29 122 31 237 6
383 -1 8 -5 20 -8 25 -4 6 -9 24 -13 40 -10 42 -83 190 -101 205 -8 7 -15 16
-15 21 0 4 -20 29 -44 54 -39 40 -43 49 -36 73 5 15 27 83 50 151 22 69 42
134 45 145 2 12 4 22 6 24 1 1 3 7 4 12 1 6 3 11 5 13 1 1 3 11 5 22 2 11 13
57 24 103 12 45 23 97 25 115 3 17 8 43 10 57 3 14 8 36 11 50 3 14 8 50 12
80 6 54 10 85 13 85 0 0 4 38 7 85 14 178 7 543 -11 635 -2 11 -7 42 -10 68
-4 27 -9 57 -11 67 -2 9 -6 33 -9 51 -3 19 -19 88 -37 154 -17 66 -31 126 -32
133 0 6 -5 12 -10 12 -6 0 -7 3 -4 7 4 3 2 12 -4 20 -6 7 -9 13 -5 13 5 0 -8
40 -35 108 -5 12 -13 32 -18 45 -27 70 -58 139 -99 222 -67 135 -75 151 -123
228 -27 43 -49 81 -49 84 0 3 -13 22 -30 43 -16 21 -30 41 -30 45 0 16 -217
297 -329 425 -118 135 -417 426 -569 555 -20 17 -43 37 -52 45 -8 8 -74 62
-145 119 -72 57 -132 107 -135 110 -3 3 -13 11 -22 16 -9 6 -71 52 -137 103
-67 50 -124 92 -128 92 -3 0 -13 7 -22 16 -9 9 -95 72 -191 140 -96 68 -180
128 -187 134 -7 5 -16 10 -22 10 -5 0 -11 3 -13 8 -1 4 -32 29 -68 55 -36 27
-72 53 -80 60 -8 7 -32 23 -53 37 -20 14 -37 28 -37 33 0 4 -5 7 -10 7 -6 0
-49 29 -95 65 -47 36 -90 65 -94 65 -5 0 -11 4 -13 8 -1 4 -52 45 -113 90
-160 121 -250 201 -360 323 -85 94 -105 118 -105 129 0 5 -4 10 -9 10 -13 0
-173 242 -221 335 -23 44 -46 85 -52 92 -6 7 -8 13 -4 13 4 0 -3 18 -14 40
-16 32 -60 139 -65 160 -1 3 -4 12 -8 20 -16 44 -37 108 -42 130 -3 14 -14 59
-25 100 -11 41 -22 89 -25 105 -2 17 -7 41 -10 55 -26 130 -36 429 -21 580 5
41 10 91 12 110 2 19 13 82 24 140 26 131 27 137 37 163 4 12 8 31 8 42 0 11
4 25 8 32 4 6 3 14 -2 17 -5 3 -7 15 -4 26 8 32 -44 126 -90 164 -64 52 -158
74 -228 55z m-285 -721 c-7 -35 -7 -352 0 -448 9 -122 28 -265 46 -350 5 -25
12 -56 14 -70 3 -14 12 -52 21 -85 9 -33 18 -64 19 -70 14 -54 20 -72 29 -82
5 -7 7 -13 4 -13 -8 0 33 -116 81 -230 195 -462 494 -841 936 -1183 56 -43
111 -87 124 -98 12 -10 24 -19 27 -19 3 0 100 -69 150 -107 6 -5 39 -28 75
-52 36 -24 93 -63 127 -87 35 -24 67 -44 73 -44 5 0 10 -4 10 -9 0 -6 11 -16
25 -23 27 -14 339 -236 360 -255 8 -7 16 -13 19 -13 3 0 16 -9 28 -19 13 -11
82 -63 153 -115 72 -53 137 -102 145 -109 8 -7 29 -23 46 -37 17 -14 48 -38
69 -55 21 -16 43 -35 49 -40 6 -6 36 -30 66 -55 30 -25 57 -47 60 -50 3 -3 23
-20 45 -39 38 -32 236 -214 259 -237 142 -146 261 -276 304 -334 10 -12 27
-33 40 -46 13 -13 20 -24 18 -24 -5 0 1 -9 46 -62 10 -12 39 -53 65 -92 27
-39 51 -73 54 -76 27 -23 196 -338 240 -447 5 -13 13 -33 18 -45 15 -36 53
-141 56 -158 2 -8 8 -30 14 -48 10 -34 12 -41 16 -57 1 -5 7 -26 14 -47 6 -20
11 -40 10 -45 -2 -4 2 -26 8 -48 7 -22 14 -60 18 -85 4 -25 8 -56 10 -70 27
-183 27 -550 1 -710 -2 -14 -7 -43 -11 -65 -3 -22 -8 -47 -10 -55 -2 -8 -7
-28 -10 -45 -5 -31 -19 -96 -24 -112 -1 -2 -1 -5 -1 -8 -1 -3 -7 -23 -15 -46
-9 -23 -17 -51 -19 -63 -6 -33 -57 -170 -68 -183 -6 -7 -7 -13 -3 -13 4 0 3
-6 -3 -13 -8 -9 -155 -12 -684 -12 -370 1 -679 4 -686 9 -7 4 -12 2 -12 -4 0
-6 -5 -8 -12 -4 -6 4 -70 9 -142 10 -72 2 -131 4 -131 4 0 1 -34 3 -75 5 -41
2 -109 6 -150 9 -41 3 -104 8 -140 11 -36 2 -85 7 -110 10 -25 2 -72 7 -105
10 -33 3 -80 7 -105 10 -73 9 -132 16 -180 20 -25 3 -56 7 -70 10 -31 8 -72
13 -127 16 -24 2 -43 6 -43 10 0 3 -8 6 -17 6 -24 -1 -112 12 -198 28 -121 24
-129 26 -174 31 -24 2 -48 7 -54 11 -5 3 -20 7 -31 9 -12 1 -34 5 -51 9 -16 3
-41 8 -55 11 -14 3 -43 10 -65 16 -22 5 -49 12 -60 14 -84 16 -95 19 -115 26
-8 3 -71 20 -140 38 -119 30 -177 46 -210 58 -8 3 -18 6 -22 7 -5 2 -9 3 -10
5 -2 1 -10 3 -19 5 -20 4 -286 92 -314 104 -11 5 -36 14 -55 21 -19 7 -51 19
-70 28 -19 8 -37 15 -40 15 -3 -1 -14 4 -25 10 -11 6 -22 12 -25 12 -47 12
-406 186 -526 256 -49 29 -98 57 -109 63 -26 15 -79 49 -85 56 -3 3 -17 11
-32 19 -16 8 -28 18 -28 23 0 4 -5 8 -11 8 -9 0 -166 114 -179 130 -3 3 -16
14 -30 23 -34 23 -152 130 -214 194 -109 110 -163 174 -274 323 -54 72 -212
360 -212 386 0 3 -7 20 -15 37 -17 38 -76 214 -81 242 -1 11 -5 35 -8 53 -3
18 -7 36 -10 41 -3 4 -8 35 -11 67 -4 32 -10 75 -14 95 -9 39 -7 377 2 419 3
14 8 45 11 70 4 25 10 62 15 83 5 20 7 37 4 37 -2 0 -1 6 4 13 4 6 9 23 11 36
5 35 89 283 99 290 4 3 9 14 11 24 7 40 158 307 175 307 4 0 7 5 7 11 0 30
260 319 287 319 8 0 12 -4 8 -10 -3 -5 -1 -17 4 -27 5 -10 19 -47 31 -83 12
-36 26 -74 31 -85 6 -12 11 -29 13 -38 1 -9 8 -23 14 -29 7 -7 12 -18 12 -24
0 -39 180 -342 267 -449 13 -16 41 -50 61 -75 34 -42 283 -292 314 -315 25
-19 113 -90 118 -95 8 -8 83 -64 101 -75 8 -5 69 -46 135 -90 65 -44 121 -80
124 -80 3 0 23 -12 45 -26 22 -14 47 -29 55 -32 8 -4 30 -16 48 -27 19 -11 79
-44 135 -73 56 -28 105 -56 109 -62 4 -5 8 -6 8 -2 0 4 30 -8 68 -27 37 -19
99 -49 137 -66 39 -18 88 -41 111 -51 22 -10 43 -19 47 -19 3 0 30 -11 59 -24
29 -13 89 -39 133 -56 44 -18 91 -37 105 -43 14 -5 30 -11 35 -13 6 -1 44 -17
85 -34 41 -17 80 -33 85 -34 10 -3 23 -8 63 -23 9 -3 20 -7 25 -8 4 -2 9 -4
12 -5 3 -1 8 -3 13 -5 4 -1 21 -7 37 -14 17 -7 77 -30 135 -51 58 -21 126 -48
153 -60 26 -11 52 -18 57 -15 6 3 10 2 10 -2 0 -10 74 -9 115 2 80 21 160 103
183 187 9 35 5 139 -6 148 -4 3 -8 12 -10 20 -9 41 -92 120 -142 135 -24 7
-280 100 -310 112 -8 3 -17 7 -20 8 -27 9 -48 18 -64 27 -10 5 -26 11 -35 13
-9 2 -29 9 -46 16 -16 7 -32 13 -35 13 -27 6 -479 194 -595 247 -27 13 -52 24
-55 24 -3 1 -75 36 -160 79 -85 44 -165 84 -177 90 -13 6 -23 15 -23 19 0 5
-4 6 -9 3 -5 -3 -14 1 -21 9 -7 8 -18 15 -25 15 -8 0 -15 3 -17 8 -1 4 -19 16
-38 26 -93 51 -319 208 -328 229 -2 4 -10 7 -17 7 -8 0 -18 6 -22 13 -4 6 -33
33 -63 59 -98 83 -198 186 -270 278 -19 25 -38 47 -42 48 -4 2 -8 9 -8 16 0 7
-8 21 -17 32 -31 34 -60 79 -67 102 -4 12 -12 22 -17 22 -5 0 -8 3 -7 8 1 4
-11 32 -27 62 -16 30 -28 58 -27 63 1 4 -2 7 -8 7 -5 0 -10 5 -10 12 0 6 -12
41 -26 77 -27 68 -62 177 -70 221 -2 14 -7 36 -10 50 -6 25 -7 31 -19 100 -13
82 -20 184 -19 315 1 179 10 266 46 434 11 51 21 101 23 110 7 36 58 188 72
214 8 16 16 37 18 46 5 25 106 231 133 271 13 19 28 44 33 55 14 29 105 164
119 175 3 3 14 16 22 29 63 91 263 288 394 388 65 49 72 55 93 73 9 8 33 26
54 40 20 14 37 28 37 33 0 4 5 7 10 7 6 0 20 9 32 20 12 11 27 20 34 20 6 0
14 7 18 15 3 8 12 15 20 15 8 0 16 4 18 8 2 4 46 34 98 67 52 32 103 65 113
73 9 9 17 12 17 8 0 -4 12 2 26 13 34 27 44 26 38 -1z m-2961 -4980 c-2 -5 1
-8 8 -8 7 0 10 -3 6 -6 -7 -7 63 -176 77 -186 6 -4 8 -8 4 -8 -4 0 14 -39 39
-87 25 -49 51 -98 57 -110 6 -13 14 -23 19 -23 4 0 7 -5 7 -11 0 -17 172 -268
215 -315 6 -6 21 -25 35 -44 35 -46 314 -326 380 -381 119 -99 176 -144 276
-215 57 -41 108 -74 113 -74 5 0 11 -4 13 -8 11 -27 558 -335 558 -314 0 4 4
2 8 -3 4 -6 36 -24 72 -39 36 -16 93 -42 127 -58 34 -15 67 -28 73 -28 7 0 24
-7 38 -15 35 -19 229 -95 262 -101 13 -3 38 -11 55 -19 32 -14 93 -34 110 -36
6 -1 18 -5 27 -10 9 -5 40 -15 70 -23 29 -8 85 -24 123 -36 81 -24 61 -19 240
-65 77 -20 151 -39 165 -41 14 -3 43 -10 65 -16 22 -6 51 -12 65 -13 14 -1 25
-3 25 -4 0 -4 37 -11 170 -35 50 -9 110 -21 135 -26 41 -9 74 -14 155 -26 17
-2 46 -7 65 -10 19 -3 49 -7 65 -9 17 -2 30 -4 30 -5 0 -1 16 -3 35 -5 50 -5
131 -15 160 -20 22 -4 74 -10 170 -20 14 -1 54 -6 90 -10 36 -4 90 -9 120 -11
30 -2 87 -6 125 -9 39 -4 97 -7 131 -9 33 -1 64 -4 70 -7 5 -3 46 -4 91 -4 46
0 83 -2 83 -5 0 -7 228 -10 1025 -14 688 -3 701 -3 747 -24 59 -26 127 -93
155 -152 17 -36 21 -61 19 -125 -3 -91 -22 -139 -80 -197 -34 -34 -116 -85
-116 -72 0 4 -6 1 -13 -5 -10 -7 -164 -11 -513 -11 l-500 -1 -51 -23 c-127
-60 -191 -209 -140 -329 9 -20 15 -39 14 -40 -6 -10 86 -83 129 -103 46 -20
66 -22 234 -24 101 0 186 -3 189 -5 7 -7 4 -1395 -3 -1402 -4 -4 -1399 -7
-3101 -7 -2743 -1 -3096 1 -3099 14 -3 8 -4 327 -4 708 l1 692 2389 0 c2446 0
2460 0 2496 37 7 7 17 13 22 13 19 0 76 73 92 118 39 106 18 193 -65 275 -32
32 -61 56 -65 53 -3 -3 -12 0 -20 7 -12 9 -578 12 -2696 14 -1475 1 -2708 4
-2741 6 -92 7 -176 59 -224 140 -24 39 -53 145 -44 160 2 4 6 22 8 40 9 84 73
167 165 214 l55 27 340 1 c318 1 343 3 385 22 103 46 160 138 156 252 -4 100
-57 175 -155 222 -41 19 -63 21 -302 21 -289 1 -263 -6 -274 78 -22 160 -28
254 -28 395 1 184 16 347 45 475 5 25 11 56 14 70 2 14 11 50 19 80 9 30 17
62 18 70 5 33 56 180 79 223 5 10 6 22 3 27 -3 4 0 10 5 12 6 2 12 10 13 18 2
9 33 77 70 152 67 133 198 343 267 425 l35 41 11 -26 c6 -15 9 -30 7 -34z
m2592 -5567 c14 -1 -51 -71 -230 -247 -137 -135 -307 -301 -376 -370 -69 -68
-129 -124 -133 -124 -14 0 -65 47 -59 54 4 3 2 6 -4 6 -6 0 -118 107 -251 238
-132 130 -286 281 -341 336 -55 54 -99 101 -97 105 3 4 1392 6 1491 2z m2365
-2 c0 -12 -742 -739 -754 -739 -4 0 -52 43 -105 95 -305 301 -571 562 -608
596 -24 22 -43 41 -43 44 0 2 15 5 33 7 61 6 1477 3 1477 -3z m-1314 -926
c101 -100 184 -185 184 -189 0 -4 -82 -88 -182 -186 -101 -99 -281 -276 -400
-393 l-216 -214 -404 399 -403 399 195 191 c107 105 289 283 403 396 l208 204
216 -212 c118 -117 298 -295 399 -395z m1439 285 c-2 -18 -6 -53 -9 -78 -3
-25 -8 -65 -11 -90 -7 -50 -10 -73 -20 -175 -4 -38 -9 -79 -11 -90 -5 -21 -14
-106 -19 -165 -2 -19 -4 -36 -5 -37 -1 -2 -3 -11 -4 -20 -20 -181 -23 -203
-28 -209 -2 -1 -93 87 -202 196 l-198 199 254 251 c139 137 254 250 255 250 1
0 0 -15 -2 -32z m-2922 -1142 c122 -120 235 -229 250 -242 16 -13 25 -24 20
-24 -4 0 -2 -4 4 -8 7 -5 61 -55 119 -112 l106 -104 -343 -338 c-189 -186
-344 -338 -345 -338 -2 0 -26 -25 -55 -55 -28 -30 -56 -55 -62 -55 -20 0 -677
656 -678 677 -1 23 -7 91 -15 163 l-5 55 301 295 c166 162 323 316 349 342
l46 47 43 -42 c24 -23 143 -140 265 -261z m2236 127 c99 -98 255 -252 346
-342 l167 -164 -6 -61 c-4 -33 -9 -68 -11 -76 -2 -8 -6 -35 -9 -60 -5 -44 -13
-52 -314 -350 -170 -168 -321 -316 -335 -328 l-25 -24 -254 250 c-139 138
-320 316 -402 397 l-148 146 183 180 c101 99 282 277 402 395 120 118 220 214
222 214 2 0 85 -80 184 -177z m-751 -1591 c100 -98 182 -182 182 -186 0 -4
-126 -132 -281 -284 -155 -152 -332 -328 -395 -389 -63 -62 -118 -113 -122
-113 -10 0 -802 777 -802 786 0 4 176 178 632 627 l170 167 217 -214 c119
-118 298 -295 399 -394z m-2180 -174 c11 -14 2 -26 -65 -92 -42 -41 -78 -74
-80 -72 -3 3 -4 16 -23 196 -14 133 -13 121 -11 139 1 11 136 -118 179 -171z
m3307 130 c-3 -29 -8 -71 -11 -93 -9 -71 -14 -119 -18 -158 -2 -21 -5 -40 -8
-42 -2 -2 -39 30 -81 73 l-77 78 97 97 c54 53 99 97 101 97 2 0 1 -24 -3 -52z
m-2452 -970 c237 -236 427 -431 424 -435 -4 -3 -2 -12 4 -20 9 -10 3 -13 -32
-14 -103 -1 -815 0 -824 1 -6 1 -14 2 -20 0 -34 -6 -408 -1 -415 6 -5 5 -11
36 -14 69 -3 33 -8 74 -10 90 -2 17 -7 57 -10 90 -4 33 -12 97 -17 143 l-11
82 228 225 c220 216 229 224 247 207 11 -9 213 -209 450 -444z m2084 270 c108
-106 209 -206 225 -223 28 -29 29 -32 23 -105 -3 -41 -7 -86 -9 -100 -11 -66
-25 -184 -29 -252 -1 -20 -6 -40 -10 -44 -8 -8 -1327 -12 -1327 -3 0 3 178
180 396 395 218 214 426 419 462 456 37 38 69 68 70 68 2 0 92 -87 199 -192z
m136 -1273 c-1 -18 -10 -96 -18 -165 -2 -14 -6 -56 -10 -93 -3 -37 -8 -77 -10
-87 -2 -10 -7 -47 -10 -82 -12 -114 -18 -133 -45 -135 -47 -5 -333 -2 -341 2
-4 3 -10 1 -14 -5 -4 -7 -12 -7 -24 0 -10 5 -21 6 -25 3 -10 -10 -35 -12 -40
-4 -3 3 -34 4 -70 1 -36 -3 -74 -3 -83 1 -10 3 -26 4 -35 0 -9 -3 -58 -4 -108
-1 -51 3 -94 2 -97 -3 -2 -4 -12 -3 -22 3 -10 5 -21 6 -25 3 -10 -10 -35 -12
-40 -4 -3 3 -34 4 -70 1 -36 -3 -74 -3 -83 1 -10 3 -26 4 -35 0 -9 -3 -58 -4
-108 -1 -51 3 -93 3 -95 0 -2 -3 -56 -3 -120 0 -64 3 -118 3 -120 0 -2 -3 -38
-3 -80 0 -42 3 -78 3 -80 0 -2 -3 -38 -3 -80 0 -42 3 -78 3 -80 0 -2 -3 -38
-3 -80 0 -42 3 -78 3 -80 0 -2 -3 -56 -3 -120 0 -64 3 -119 2 -122 -3 -2 -4
-12 -3 -22 3 -10 5 -21 6 -25 3 -10 -10 -35 -12 -40 -4 -3 3 -34 4 -70 1 -36
-3 -74 -3 -83 1 -10 3 -26 4 -35 0 -9 -3 -58 -4 -108 -1 -51 3 -94 3 -96 1 -7
-7 -98 -1 -106 7 -3 4 -9 30 -12 57 -3 28 -8 68 -10 90 -3 22 -8 67 -11 100
-4 33 -9 76 -11 95 -10 73 -13 97 -19 154 -3 32 -8 62 -10 67 -3 4 1 9 7 12 7
2 690 3 1518 3 1499 -1 1505 -1 1503 -21z"/>
</g>
</svg>
